<?xml version="1.0" encoding="UTF-8"?>
<svg width="41px" height="55px" viewBox="0 0 41 55" version="1.1" xmlns="http://www.w3.org/2000/svg" xmlns:xlink="http://www.w3.org/1999/xlink">
    <!-- Generator: Sketch 50.2 (55047) - http://www.bohemiancoding.com/sketch -->
    <title>Page 1</title>
    <desc>Created with Sketch.</desc>
    <defs></defs>
    <g id="Symbols" stroke="none" stroke-width="1" fill="none" fill-rule="evenodd">
        <g id="ICON/REGISTER/INIT" transform="translate(-20.000000, -13.000000)" fill="#777777" fill-rule="nonzero">
            <g id="Page-1" transform="translate(21.000000, 14.000000)">
                <path d="M25.7776,26.728 L25.7776,25.728 C33.3638847,25.728 39.5346,31.8987153 39.5346,39.485 C39.5346,47.0702856 33.3638839,53.24 25.7776,53.24 C18.1923153,53.24 12.0226,47.0702847 12.0226,39.485 C12.0226,31.8987161 18.1923144,25.728 25.7776,25.728 L25.7776,26.728 Z M25.7776,26.728 L25.7776,27.728 C19.2969566,27.728 14.0226,33.0032129 14.0226,39.485 C14.0226,45.9657153 19.2968847,51.24 25.7776,51.24 C32.2593871,51.24 37.5346,45.9656434 37.5346,39.485 C37.5346,33.0032847 32.2593153,27.728 25.7776,27.728 L25.7776,26.728 Z" id="Stroke-1"></path>
                <path d="M14.1331,6.147 C14.1331,3.58091199 12.0524425,1.5 9.4861,1.5 C6.91888475,1.5 4.8381,3.58078475 4.8381,6.147 C4.8381,8.71446967 6.91813914,10.794 9.4861,10.794 C12.0531881,10.794 14.1331,8.71434248 14.1331,6.147 Z M16.1331,6.147 C16.1331,9.81896675 13.1577028,12.794 9.4861,12.794 C5.81367916,12.794 2.8381,9.81914872 2.8381,6.147 C2.8381,2.47621525 5.81431525,-0.5 9.4861,-0.5 C13.1570668,-0.5 16.1331,2.47639725 16.1331,6.147 Z" id="Stroke-3"></path>
                <path d="M-0.486299432,33.636466 L-0.499299244,21.44163 C-0.502978573,18.4503351 1.93819628,16.0030801 4.92959722,15.9994006 L13.99747,15.9894008 C16.9892133,15.9857209 19.4362471,18.4274342 19.438699,21.4189605 L19.441699,23.5029605 L17.441701,23.5058395 L17.4387003,21.4212197 C17.4371535,19.53402 15.886841,17.9870783 13.9998028,17.9893994 L4.93193001,17.9993992 C3.0452373,18.0017199 1.49837853,19.5524314 1.50069943,21.439334 L1.51369924,33.6341705 C1.51602011,35.5218104 3.06676906,37.068948 4.95488033,37.0674003 C5.50751213,37.0669474 5.95573835,37.5148374 5.9557,38.0674694 L5.9547,52.4764694 L3.9547,52.4763306 L3.95563698,38.9754684 C1.43732388,38.5051501 -0.483040626,36.2869707 -0.486299432,33.636466 Z" id="Stroke-5"></path>
                <path d="M30.2273993,35.0687554 L31.8092007,36.2926446 L25.9242007,43.8986446 C25.5805569,44.342783 24.9386627,44.4169506 24.5027901,44.0628812 L19.9097901,40.3318812 L21.1708099,38.7795188 L24.9690173,41.8648904 L30.2273993,35.0687554 Z" id="Stroke-7"></path>
            </g>
        </g>
    </g>
</svg>